<svg width="10.8in" height="57.6" viewBox="0 0 775.7 44" xmlns="http://www.w3.org/2000/svg"><path d="M739.6 34h36v-4h-36zm0-10h36v-4h-36zm0-14v4h36v-4z"/><path d="M624.3 10.8L621.5 8l-11.2 11.1L599.1 8l-2.8 2.8L607.5 22l-11.2 11.1 2.8 2.8 11.2-11.1L621.5 36l2.8-2.8L613.1 22z" data-name="x button"/><path d="M461 32h4V20h-4zm2-30a20 20 0 1 0 20 20 20 20 0 0 0-20-20zm0 36a16 16 0 1 1 16-16 16 16 0 0 1-16 16zm-2-22h4v-4h-4zm-292.7-2a4 4 0 1 0-4-4 4 4 0 0 0 4 4zm0 4a4 4 0 1 0 4 4 4 4 0 0 0-4-4zm0 12a4 4 0 1 0 4 4 4 4 0 0 0-4-4zm147.3-20v6l8-8-8-8v6a16 16 0 0 0-13.5 24.5l2.9-2.9a11.9 11.9 0 0 1-1.4-5.6 12 12 0 0 1 12-12zm13.5 3.5l-2.9 2.9a11.9 11.9 0 0 1 1.4 5.6 12 12 0 0 1-12 12v-6l-8 8 8 8v-6a16 16 0 0 0 13.5-24.5zM0 40l42-18L0 4v14l30 4-30 4z"/></svg>