<svg xmlns="http://www.w3.org/2000/svg"><symbol id="alert" viewBox="0 0 47.3 47.3"><path d="M21.7 33.7h4v-12h-4zm2-30a20 20 0 1 0 20 20 20 20 0 0 0-20-20zm0 36a16 16 0 1 1 16-16 16 16 0 0 1-16 16zm-2-22h4v-4h-4z"/></symbol><symbol id="hamburger" viewBox="0 0 47.3 47.3"><path d="M5.7 35.7h36v-4h-36zm0-10h36v-4h-36zm0-14v4h36v-4z"/></symbol><symbol id="option" viewBox="0 0 47.3 47.3"><path d="M23.7 15.7a4 4 0 1 0-4-4 4 4 0 0 0 4 4zm0 4a4 4 0 1 0 4 4 4 4 0 0 0-4-4zm0 12a4 4 0 1 0 4 4 4 4 0 0 0-4-4z"/></symbol><symbol id="refresh" viewBox="0 0 47.3 47.3"><path d="M23.7 11.7v6l8-8-8-8v6a16 16 0 0 0-13.6 24.5l2.9-2.9a11.9 11.9 0 0 1-1.4-5.6 12 12 0 0 1 12.1-12zm13.5 3.5l-2.9 2.9a11.9 11.9 0 0 1 1.4 5.6 12 12 0 0 1-12 12v-6l-8 8 8 8v-6a16 16 0 0 0 13.5-24.6z"/></symbol><symbol id="send" viewBox="0 0 47.3 47.3"><path d="M2.7 41.7l42-18-42-18v14l30 4-30 4z"/></symbol><symbol id="x-button" viewBox="0 0 47.3 47.3"><path d="M37.7 12.5l-2.9-2.8-11.1 11.1L12.5 9.7l-2.8 2.8 11.1 11.2L9.7 34.8l2.8 2.8 11.2-11.1 11.1 11.2 2.8-2.8-11.1-11.2z" data-name="x button"/></symbol></svg>