<svg id="Layer_1" data-name="Layer 1" xmlns="http://www.w3.org/2000/svg" width="256" height="256" viewBox="0 0 256 256"><title>logo</title><path d="M137.1,130.1h-.2a6.3,6.3,0,0,1-11.3.2v-.2a6.3,6.3,0,0,1-.2-11.3l1.6-.5a10.2,10.2,0,0,1,9,.1,6.3,6.3,0,0,1,1.3,11.7Z" fill="#84d1dd"/><path d="M77.3,72.7c1.5-1.5,2.7-3.3,4.2-4.8a21.4,21.4,0,0,0,2.7-5.4c.7-2.2,1.6-3.9,3.9-4.8s5.7-.9,7.5,1.2.2,7.3-1.1,10.3c-2.7,6.4-6.2,12.6-12,16.7a35.1,35.1,0,0,1-11,5.3c-4.6,1.3-12.2,2.5-14.4-3.3-.8-2.2-.4-4.8.1-7,2-8.4,6.7-18,14.2-22.8a9.2,9.2,0,0,1,4.7-1.7,4.6,4.6,0,0,1,4.2,2.3C82.2,62.6,79.3,69.3,77.3,72.7Z" fill="#84d1dd"/><path d="M178.7,72.7c-1.5-1.5-2.7-3.3-4.2-4.8a21.4,21.4,0,0,1-2.7-5.4c-.7-2.2-1.6-3.9-3.9-4.8s-5.7-.9-7.5,1.2-.2,7.3,1.1,10.3c2.7,6.4,6.2,12.6,12,16.7a35.1,35.1,0,0,0,11,5.3c4.6,1.3,12.2,2.5,14.4-3.3.8-2.2.4-4.8-.1-7-2-8.4-6.7-18-14.2-22.8a9.2,9.2,0,0,0-4.7-1.7,4.6,4.6,0,0,0-4.2,2.3C173.8,62.6,176.7,69.3,178.7,72.7Z" fill="#84d1dd"/><path d="M185.5,113.2a84.4,84.4,0,0,0-4.2-21.3,35.6,35.6,0,0,1-9.9-5c-5.8-4.1-9.3-10.3-12-16.7-1.1-2.6-2.4-5.1-2.1-8.1a1.7,1.7,0,0,0,0-.6c-.3-1-3.1-1.9-4-2.3a54.3,54.3,0,0,0-5.2-2.1,63.1,63.1,0,0,0-11.5-2.7q-3.2-.5-6.8-.7a51,51,0,0,0-10.4,1.6h-.1a58.4,58.4,0,0,0-20.7,9.6,31.3,31.3,0,0,1-2,5.3c-2.7,6.4-6.2,12.6-12,16.7a38.2,38.2,0,0,1-4.3,2.6c-3,7.9-4.8,17.5-4.8,29.3a34.8,34.8,0,0,0,25.7,33.6,34.8,34.8,0,0,0,60.9-3.4,34.8,34.8,0,0,0,23.2-30.2c.1-.9.1-1.7.1-2.6h0C185.6,115.4,185.5,114.4,185.5,113.2ZM111.3,103H92.5S101.9,76.9,111.3,103Zm-13.6,7.3a3.1,3.1,0,1,1,3.1,3.1A3.1,3.1,0,0,1,97.8,110.3Zm32.9,55.4c-9.4,0-9.4-12.5-9.4-12.5a14.9,14.9,0,0,0,8.4-2.4l1,3.4,1-3.4a14.9,14.9,0,0,0,8.4,2.4S140.1,165.8,130.7,165.8ZM142,151.5a17.8,17.8,0,0,1-11.4-4.1,17.9,17.9,0,1,1-17.3-30.7,17.8,17.8,0,0,1,34.5,0,17.9,17.9,0,0,1-5.9,34.8Zm15.3-38a3.1,3.1,0,1,1,3.1-3.1A3.1,3.1,0,0,1,157.4,113.5ZM147.9,103s9.4-26.1,18.8,0Z" fill="#84d1dd"/><path d="M128,199.4a96,96,0,1,1,96-96A96.1,96.1,0,0,1,128,199.4Zm0-178.9a82.9,82.9,0,1,0,82.9,82.9A83,83,0,0,0,128,20.5Z" fill="#f495b6"/><path d="M18.4,245.3V220.9h8.8q4.7,0,7.2,1.7a5.8,5.8,0,0,1,2.5,5,5.8,5.8,0,0,1-.9,3.2,5.1,5.1,0,0,1-2.6,2,5.2,5.2,0,0,1,2.9,1.9,5.5,5.5,0,0,1,1,3.4,6.5,6.5,0,0,1-2.3,5.4q-2.3,1.8-6.7,1.8Zm5.9-14.2h3.1a4.4,4.4,0,0,0,2.8-.7,2.5,2.5,0,0,0,.8-2,2.6,2.6,0,0,0-.9-2.2,4.8,4.8,0,0,0-2.9-.7H24.3Zm0,3.9v5.9h3.9a3.7,3.7,0,0,0,2.5-.7,2.6,2.6,0,0,0,.9-2.1q0-3.1-3-3.1Z" fill="#84d1dd"/><path d="M46.9,245.3H41V220.9h5.9Z" fill="#84d1dd"/><path d="M60.1,236.7H56.9v8.6H51V220.9h9.6a10.7,10.7,0,0,1,6.8,1.9,6.5,6.5,0,0,1,2.5,5.4,7.9,7.9,0,0,1-1,4.2,7.3,7.3,0,0,1-3.2,2.7l5.1,9.9v.3H64.4Zm-3.2-4.5h3.7a3.3,3.3,0,0,0,2.5-.9,4,4,0,0,0,0-4.9,3.3,3.3,0,0,0-2.5-.9H56.9Z" fill="#84d1dd"/><path d="M93.2,237.1a8.9,8.9,0,0,1-1.4,4.5,8.3,8.3,0,0,1-3.5,3,12,12,0,0,1-5.2,1.1,9.6,9.6,0,0,1-7.6-3.1q-2.8-3.1-2.8-8.9v-1.2a14.8,14.8,0,0,1,1.3-6.3,9.5,9.5,0,0,1,3.6-4.2,10,10,0,0,1,5.4-1.5,10.5,10.5,0,0,1,7.1,2.3,9.2,9.2,0,0,1,3.1,6.5H87.3a4.4,4.4,0,0,0-1.1-3.2,4.6,4.6,0,0,0-3.2-1,3.5,3.5,0,0,0-3.2,1.6,10.6,10.6,0,0,0-1.1,5.3v1.7q0,3.9,1,5.6a3.6,3.6,0,0,0,3.4,1.7,4.5,4.5,0,0,0,3.1-1,4.1,4.1,0,0,0,1.1-3Z" fill="#84d1dd"/><path d="M116.4,245.3h-5.9V235.1h-8.7v10.2H95.9V220.9h5.9v9.7h8.7v-9.7h5.9Z" fill="#84d1dd"/><path d="M149.1,245.3h-5.9V235.1h-8.7v10.2h-5.9V220.9h5.9v9.7h8.7v-9.7h5.9Z" fill="#f495b6"/><path d="M167,240.8h-8.1l-1.4,4.6h-6.3l9-24.4h5.5l9,24.4h-6.3Zm-6.7-4.5h5.3l-2.6-8.5Z" fill="#f495b6"/><path d="M184.7,238.7l4.9-17.8h6.6l-8.2,24.4h-6.4l-8.2-24.4h6.5Z" fill="#f495b6"/><path d="M213,235h-9.3v5.8h10.9v4.5H197.9V220.9h16.9v4.5h-11v5.2H213Z" fill="#f495b6"/><path d="M237.5,245.3h-5.9L223,230.1v15.2h-5.9V220.9H223l8.6,15.2V220.9h5.9Z" fill="#f495b6"/></svg>